<svg width="85" height="20" fill="none" xmlns="http://www.w3.org/2000/svg"><path d="M7.522 10.27c0 1.77-.854 2.777-2.463 2.777-1.43 0-2.226-.825-2.226-2.214V5.117H.33v5.958c0 2.595 1.656 4.185 3.836 4.185 1.807 0 2.72-.845 3.118-1.77h.276v1.61h2.464V5.117H7.522v5.153zM18.111 4.957c-1.807 0-2.722.838-3.12 1.77h-.275v-1.61H12.25V15.1h2.504V9.947c0-1.77.854-2.777 2.463-2.777 1.43 0 2.226.825 2.226 2.214V15.1h2.498V9.142c0-2.595-1.643-4.185-3.83-4.185zM31.364 6.526h-.24c-.515-.845-1.39-1.69-3.138-1.69-2.457 0-4.527 2.214-4.527 5.272 0 3.058 2.07 5.274 4.53 5.274 1.748 0 2.621-.845 3.139-1.69h.276V15.1h2.464V1.01h-2.504v5.515zm-2.702 6.607c-1.51 0-2.703-1.087-2.703-3.02 0-1.932 1.192-3.018 2.703-3.018 1.55 0 2.702 1.128 2.702 3.019 0 1.89-1.152 3.02-2.702 3.02zM40.404 4.835c-2.898 0-4.948 2.175-4.948 5.193 0 3.1 2.126 5.354 5.066 5.354 2.644 0 3.796-1.41 4.47-2.455l-2.045-1.208c-.338.699-1.072 1.489-2.463 1.489-1.432 0-2.365-1.026-2.464-2.395h7.174v-.946c-.001-2.999-1.93-5.032-4.79-5.032zm-2.365 4.288c.159-1.268.934-2.113 2.346-2.113 1.292 0 2.126.804 2.265 2.113H38.04zM49.483 6.565h-.276V5.117H46.74V15.1h2.505V9.384c0-1.409.913-2.096 2.185-2.096h1.47V5.077h-.954c-1.251 0-2.086.383-2.463 1.488zM56.676 1.011h-2.503V15.1h2.503V1.01zM61.503 5.117H59V15.1h2.503V5.117zM60.251 3.949c.977 0 1.77-.775 1.77-1.73 0-.956-.793-1.73-1.77-1.73s-1.769.774-1.769 1.73c0 .955.792 1.73 1.77 1.73zM69.69 4.957c-1.808 0-2.723.838-3.12 1.77h-.276v-1.61h-2.466V15.1h2.503V9.947c0-1.77.854-2.777 2.464-2.777 1.431 0 2.226.825 2.226 2.214V15.1h2.504V9.142c0-2.595-1.65-4.185-3.836-4.185zM84.67 9.867c0-2.999-1.931-5.03-4.789-5.03-2.897 0-4.947 2.174-4.947 5.193 0 3.1 2.126 5.354 5.066 5.354 2.644 0 3.796-1.41 4.472-2.456l-2.048-1.207c-.338.698-1.072 1.488-2.463 1.488-1.43 0-2.364-1.026-2.464-2.394h7.175l-.002-.948zm-7.154-.744c.16-1.268.935-2.113 2.346-2.113 1.291 0 2.126.805 2.264 2.113h-4.61zM10.022 17.368H.332v2.376h9.69v-2.376z" fill="currentColor"/></svg>
